<svg width="29" height="30" viewBox="0 0 29 30" fill="none" xmlns="http://www.w3.org/2000/svg">
<path d="M14.5085 2.7017C18.385 2.7017 18.844 2.71928 20.3686 2.78961C21.7854 2.85407 22.5505 3.10022 23.0606 3.30533C23.735 3.57492 24.2224 3.90311 24.7268 4.42469C25.2369 4.95214 25.5486 5.45028 25.8093 6.14769C26.0076 6.67513 26.2457 7.47216 26.308 8.93143C26.376 10.5138 26.393 10.9885 26.393 14.9912C26.393 18.9998 26.376 19.4745 26.308 21.051C26.2457 22.5161 26.0076 23.3073 25.8093 23.8347C25.5486 24.5321 25.2312 25.0361 24.7268 25.5577C24.2167 26.0852 23.735 26.4075 23.0606 26.6771C22.5505 26.8822 21.7798 27.1283 20.3686 27.1928C18.8384 27.2631 18.3793 27.2807 14.5085 27.2807C10.632 27.2807 10.173 27.2631 8.64843 27.1928C7.23158 27.1283 6.46648 26.8822 5.95642 26.6771C5.282 26.4075 4.79461 26.0793 4.29021 25.5577C3.78014 25.0303 3.46844 24.5321 3.20774 23.8347C3.00938 23.3073 2.77135 22.5103 2.70901 21.051C2.641 19.4686 2.624 18.9939 2.624 14.9912C2.624 10.9826 2.641 10.5079 2.70901 8.93143C2.77135 7.4663 3.00938 6.67513 3.20774 6.14769C3.46844 5.45028 3.78581 4.94628 4.29021 4.42469C4.80027 3.89725 5.282 3.57492 5.95642 3.30533C6.46648 3.10022 7.23725 2.85407 8.64843 2.78961C10.173 2.71928 10.632 2.7017 14.5085 2.7017ZM14.5085 0C10.5697 0 10.0766 0.0175816 8.52941 0.0879078C6.98788 0.158234 5.92808 0.416097 5.00997 0.78531C4.05218 1.1721 3.24174 1.68197 2.43698 2.52002C1.62654 3.35222 1.13348 4.19027 0.759429 5.17484C0.402384 6.1301 0.153019 7.22016 0.0850108 8.81422C0.0170022 10.42 0 10.9299 0 15.0029C0 19.076 0.0170022 19.5859 0.0850108 21.1858C0.153019 22.7798 0.402384 23.8758 0.759429 24.8252C1.13348 25.8156 1.62654 26.6536 2.43698 27.4858C3.24174 28.318 4.05218 28.8338 5.0043 29.2147C5.92808 29.5839 6.98222 29.8418 8.52374 29.9121C10.0709 29.9824 10.564 30 14.5028 30C18.4417 30 18.9347 29.9824 20.4819 29.9121C22.0235 29.8418 23.0833 29.5839 24.0014 29.2147C24.9535 28.8338 25.7639 28.318 26.5687 27.4858C27.3735 26.6536 27.8722 25.8156 28.2406 24.831C28.5976 23.8758 28.847 22.7857 28.915 21.1916C28.983 19.5917 29 19.0819 29 15.0088C29 10.9357 28.983 10.4259 28.915 8.82594C28.847 7.23188 28.5976 6.13596 28.2406 5.18656C27.8835 4.19027 27.3905 3.35222 26.58 2.52002C25.7753 1.68783 24.9648 1.1721 24.0127 0.79117C23.0889 0.421957 22.0348 0.164095 20.4933 0.0937683C18.9404 0.0175816 18.4473 0 14.5085 0Z" fill="black"/>
<path d="M14.5085 7.29635C10.394 7.29635 7.05589 10.7482 7.05589 15.0029C7.05589 19.2577 10.394 22.7095 14.5085 22.7095C18.623 22.7095 21.9611 19.2577 21.9611 15.0029C21.9611 10.7482 18.623 7.29635 14.5085 7.29635ZM14.5085 20.002C11.8392 20.002 9.67422 17.7632 9.67422 15.0029C9.67422 12.2426 11.8392 10.0039 14.5085 10.0039C17.1778 10.0039 19.3428 12.2426 19.3428 15.0029C19.3428 17.7632 17.1778 20.002 14.5085 20.002Z" fill="black"/>
<path d="M23.9957 6.99155C23.9957 7.98784 23.2136 8.79073 22.2558 8.79073C21.2924 8.79073 20.5159 7.98198 20.5159 6.99155C20.5159 5.99526 21.298 5.19236 22.2558 5.19236C23.2136 5.19236 23.9957 6.00112 23.9957 6.99155Z" fill="black"/>
</svg>
