<svg width="19" height="22" viewBox="0 0 19 22" fill="none" xmlns="http://www.w3.org/2000/svg">
<circle cx="9" cy="7" r="6.5" stroke="black"/>
<mask id="path-2-inside-1_262_3349" fill="white">
<path fill-rule="evenodd" clip-rule="evenodd" d="M19 21.411H0C0.143734 16.8571 4.342 13.2046 9.49998 13.2046C14.658 13.2046 18.8562 16.8571 19 21.411Z"/>
</mask>
<path d="M0 21.411L-0.999502 21.3795L-1.03206 22.411H0V21.411ZM19 21.411V22.411H20.032L19.9995 21.3795L19 21.411ZM0 22.411H19V20.411H0V22.411ZM0.999502 21.4426C1.12301 17.5293 4.77495 14.2046 9.49998 14.2046V12.2046C3.90905 12.2046 -0.835546 16.1848 -0.999502 21.3795L0.999502 21.4426ZM9.49998 14.2046C14.225 14.2046 17.8769 17.5293 18.0005 21.4426L19.9995 21.3795C19.8355 16.1848 15.0909 12.2046 9.49998 12.2046V14.2046Z" fill="black" mask="url(#path-2-inside-1_262_3349)"/>
</svg>
